<?xml version="1.0" ?><!DOCTYPE svg  PUBLIC '-//W3C//DTD SVG 1.1//EN'  'http://www.w3.org/Graphics/SVG/1.1/DTD/svg11.dtd'><svg enable-background="new 0 0 512 512" height="512px" id="Calque_1" version="1.1" viewBox="0 0 512 512" width="512px" xml:space="preserve" xmlns="http://www.w3.org/2000/svg" xmlns:xlink="http://www.w3.org/1999/xlink"><path d="M352.71,128.25c-9.07-1.18-15.54-2.3-16.3-6.08c-2.65-13.24-7.13-15.6-16.2-19.29  c-5.35-2.17-12.68-5.15-24.229-12.95C270.42,72.67,280.17,17.18,280.27,16.62c0.341-1.89-0.17-3.85-1.399-5.33  c-1.24-1.48-3.07-2.34-5-2.34c-45.61,0-81.3,18.81-106.08,55.91c-20.33,30.43-28.75,66.75-32.24,91.84  c-1.19,8.42-1.81,15.44-2.13,20.43c-0.32,4.99-0.34,7.94-0.34,8.19v216.51c0,3.59,2.91,6.5,6.5,6.5h92.64v70.91  c0,6.319,2.46,12.29,6.98,16.88c4.52,4.46,10.49,6.91,16.81,6.91c13.101,0,23.75-10.67,23.75-23.79v-70.91h92.69  c3.59,0,6.5-2.91,6.5-6.5V147.01C378.95,131.66,363.16,129.61,352.71,128.25z M266.76,479.24c0,5.95-4.819,10.79-10.75,10.79  c-2.88,0-5.61-1.12-7.62-3.101c-2.04-2.08-3.17-4.81-3.17-7.689v-70.91h21.54V479.24z M365.95,395.33h-92.67  c-0.011,0-0.011,0-0.021,0s-0.01,0-0.02,0h-34.5c-0.01,0-0.01,0-0.02,0h-92.64V185.35c0-0.08,0.04-5.17,0.79-13.47  c32.01,30.45,70.4,45.86,114.33,45.86c0.66,0,1.33-0.01,1.99-0.01c32.39-0.34,66.909-8.9,102.76-25.44V395.33z M365.95,177.91  c-62.42,30.17-149.21,49.42-217.08-22.46c7.47-49.85,32.71-128.91,117.51-133.31c-2,17.86-3.76,60.95,22.33,78.57  c12.67,8.55,21.06,11.96,26.61,14.22c6.949,2.82,6.949,2.82,8.35,9.79c2.64,13.21,16.93,15.07,27.37,16.42  c11.84,1.54,14.91,2.75,14.91,5.87V177.91z" fill="#873A87"/><path d="M266.76,408.33v70.91c0,5.95-4.819,10.79-10.75,10.79c-2.88,0-5.61-1.12-7.62-3.101  c-2.04-2.08-3.17-4.81-3.17-7.689v-70.91H266.76z" fill="#FFFFFF"/><path d="M365.95,147.01v30.9c-62.42,30.17-149.21,49.42-217.08-22.46c7.47-49.85,32.71-128.91,117.51-133.31  c-2,17.86-3.76,60.95,22.33,78.57c12.67,8.55,21.06,11.96,26.61,14.22c6.949,2.82,6.949,2.82,8.35,9.79  c2.64,13.21,16.93,15.07,27.37,16.42C362.88,142.68,365.95,143.89,365.95,147.01z" fill="#FFFFFF"/><path d="M365.95,192.29v203.04h-92.67c-0.011,0-0.011,0-0.021,0s-0.01,0-0.02,0h-34.5c-0.01,0-0.01,0-0.02,0h-92.64  V185.35c0-0.08,0.04-5.17,0.79-13.47c32.01,30.45,70.4,45.86,114.33,45.86c0.66,0,1.33-0.01,1.99-0.01  C295.58,217.39,330.1,208.83,365.95,192.29z" fill="#CEAFE2"/></svg>